<?xml version="1.0" encoding="utf-8"?>
<!-- Generator: Adobe Illustrator 24.0.2, SVG Export Plug-In . SVG Version: 6.00 Build 0)  -->
<svg version="1.1" id="레이어_1" xmlns="http://www.w3.org/2000/svg" xmlns:xlink="http://www.w3.org/1999/xlink" x="0px"
	 y="0px" viewBox="0 0 361.64 88.69" style="enable-background:new 0 0 361.64 88.69;" xml:space="preserve">
<g>
	<path d="M16.55,53.71c2.12-0.13,4.44-0.31,6.96-0.55c2.52-0.23,4.44-0.45,5.77-0.65c0.8-0.13,1.64-0.25,2.54-0.35
		c0.9-0.1,1.72-0.17,2.49-0.2c0.76-0.03,1.41-0.02,1.94,0.05c0.53,0.07,0.83,0.17,0.9,0.3c0.2,0.4,0.15,0.95-0.15,1.64
		c-0.3,0.7-0.75,1.4-1.34,2.09c-0.6,0.7-1.28,1.36-2.04,1.99c-0.76,0.63-1.51,1.05-2.24,1.25c-0.93,0.33-2.22,0.68-3.88,1.05
		c-1.66,0.37-3.4,0.7-5.22,1c-1.82,0.3-3.6,0.53-5.32,0.7c-1.72,0.17-3.18,0.22-4.38,0.15c-0.4,0-0.91-0.26-1.54-0.8
		c-0.63-0.53-1.23-1.13-1.79-1.79c-0.56-0.66-1.04-1.36-1.44-2.09c-0.4-0.73-0.6-1.3-0.6-1.69c0.07-0.73,0.13-1.88,0.2-3.44
		c0.07-1.56,0.1-3.19,0.1-4.88s-0.02-3.34-0.05-4.93c-0.03-1.59-0.15-2.79-0.35-3.59c-0.07-0.33-0.38-0.8-0.95-1.4
		c-0.56-0.6-1.21-1.25-1.94-1.94c-0.73-0.7-1.44-1.39-2.14-2.09c-0.7-0.7-1.24-1.35-1.64-1.94c-0.2-0.33-0.13-0.8,0.2-1.4
		c0.33-0.6,0.6-0.96,0.8-1.1c0.4-0.2,1.24-0.12,2.54,0.25c1.29,0.37,2.69,0.88,4.18,1.54s2.87,1.38,4.13,2.14
		c1.26,0.76,2.05,1.48,2.39,2.14c0.33,0.73,0.61,1.79,0.85,3.19c0.23,1.4,0.43,2.92,0.6,4.58c0.16,1.66,0.28,3.32,0.35,4.98
		c0.07,1.66,0.1,3.09,0.1,4.29V53.71z M42.41,29.99c-0.33-0.4-0.91-0.98-1.74-1.74c-0.83-0.76-1.71-1.66-2.64-2.69
		c-0.93-1.03-1.78-2.16-2.54-3.39c-0.76-1.23-1.21-2.54-1.34-3.94c-0.07-0.53-0.02-0.98,0.15-1.35c0.16-0.36,0.31-0.61,0.45-0.75
		c2.59,0.73,5.17,1.68,7.76,2.84c2.59,1.16,4.64,2.61,6.17,4.33c1.33,1.53,2.05,3.01,2.19,4.43c0.13,1.43,0.2,3.07,0.2,4.93v28.4
		c0,1.53-0.17,3.29-0.5,5.28c-0.33,1.99-0.75,3.92-1.24,5.78c-0.5,1.86-1.09,3.42-1.79,4.68c-0.7,1.26-1.44,1.89-2.24,1.89
		c-0.27,0-0.5-0.2-0.7-0.6s-0.38-0.95-0.55-1.64c-0.17-0.7-0.32-1.48-0.45-2.34c-0.13-0.86-0.23-1.76-0.3-2.69
		c-0.27-2.19-0.4-4.65-0.4-7.37V44.44c-0.4,0.13-1.04,0.28-1.94,0.45c-0.9,0.17-1.86,0.32-2.88,0.45c-1.03,0.13-2.01,0.25-2.93,0.35
		c-0.93,0.1-1.66,0.12-2.19,0.05c-0.46-0.07-0.83-0.2-1.09-0.4c-0.27-0.2-0.63-0.55-1.09-1.05c-0.46-0.5-0.95-1.06-1.44-1.69
		c-0.5-0.63-0.98-1.29-1.44-1.99c-0.46-0.7-0.8-1.34-0.99-1.94c-0.13-0.4-0.13-0.68,0-0.85c0.13-0.17,0.33-0.31,0.6-0.45
		c0.93-0.33,2.05-0.58,3.38-0.75c1.33-0.17,2.69-0.26,4.08-0.3c1.39-0.03,2.75,0,4.08,0.1c1.33,0.1,2.45,0.18,3.38,0.25V29.99z
		 M58.52,19.43c-0.2-0.2-0.85-0.76-1.94-1.69c-1.09-0.93-2.34-2.01-3.73-3.24c-1.39-1.23-2.77-2.47-4.13-3.74
		c-1.36-1.26-2.37-2.36-3.03-3.29c-0.27-0.33-0.53-0.85-0.8-1.54c-0.27-0.7-0.5-1.43-0.7-2.19c-0.2-0.76-0.32-1.46-0.35-2.09
		C43.82,1.01,43.97,0.6,44.3,0.4c0.46-0.2,1.14-0.2,2.04,0c0.9,0.2,1.54,0.37,1.94,0.5c1.33,0.4,2.82,1.06,4.48,1.99
		c1.66,0.93,3.32,1.94,4.97,3.04c1.66,1.1,3.22,2.23,4.67,3.39c1.46,1.16,2.62,2.18,3.48,3.04c0.6,0.6,1.01,1.21,1.24,1.84
		c0.23,0.63,0.35,1.58,0.35,2.84v42.85c0,1.26-0.05,2.84-0.15,4.73c-0.1,1.89-0.28,3.9-0.55,6.03c-0.27,2.13-0.56,4.27-0.9,6.43
		c-0.33,2.16-0.76,4.09-1.29,5.78c-0.53,1.69-1.11,3.07-1.74,4.13c-0.63,1.06-1.34,1.59-2.14,1.59c-0.53,0-0.95-0.93-1.24-2.79
		c-0.3-1.86-0.51-3.95-0.65-6.28c-0.13-2.33-0.22-4.5-0.25-6.53c-0.03-2.03-0.05-3.24-0.05-3.64V19.43z"/>
	<path d="M90.25,30.49c0.73-0.2,1.81-0.45,3.23-0.75c1.43-0.3,2.67-0.45,3.73-0.45c0.2,0,0.48,0.03,0.85,0.1
		c0.36,0.07,0.73,0.15,1.09,0.25c0.36,0.1,0.68,0.27,0.95,0.5c0.26,0.23,0.4,0.48,0.4,0.75c0.07,1.26-0.25,2.49-0.95,3.69
		c-0.7,1.2-1.48,1.83-2.34,1.89c-0.73,0.07-1.77,0.13-3.13,0.2c-1.36,0.07-2.44,0.2-3.23,0.4c0,1.59-0.23,3.09-0.7,4.48
		c-0.33,0.93-0.98,1.91-1.94,2.94c-0.96,1.03-1.91,1.81-2.83,2.34c-0.46,0.27-0.83,0.35-1.09,0.25c-0.27-0.1-0.43-0.51-0.5-1.25
		c-0.33-1.93-0.56-3.79-0.7-5.58c-0.13-1.79-0.37-3.85-0.7-6.18c-0.07-0.4-0.33-0.98-0.8-1.74c-0.46-0.76-0.99-1.59-1.59-2.49
		c-0.6-0.9-1.19-1.79-1.79-2.69c-0.6-0.9-1.03-1.71-1.29-2.44c-0.07-0.26-0.13-0.53-0.2-0.8c-0.07-0.26-0.03-0.53,0.1-0.8
		c0.13-0.13,0.45-0.3,0.94-0.5c0.5-0.2,0.91-0.36,1.24-0.5c0.26-0.13,0.56-0.13,0.9,0c0.6,0.2,1.43,0.58,2.49,1.15
		c1.06,0.56,2.14,1.25,3.23,2.04c1.09,0.8,2.09,1.64,2.98,2.54C89.51,28.75,90.05,29.63,90.25,30.49z M109.45,43.64
		c0.26,1,0.02,1.93-0.75,2.79c-0.76,0.86-1.71,1.43-2.83,1.69c-0.2,0.07-0.91,0.22-2.14,0.45c-1.23,0.23-2.52,0.48-3.88,0.75
		c-1.36,0.27-2.55,0.5-3.58,0.7c-1.03,0.2-1.48,0.3-1.34,0.3c-0.27,0-0.58-0.17-0.95-0.5c-0.37-0.33-0.73-0.76-1.09-1.3
		c-0.37-0.53-0.66-1.13-0.9-1.79c-0.23-0.66-0.35-1.33-0.35-1.99c0-0.73,0.26-1.33,0.8-1.79c0.26-0.26,0.8-0.5,1.59-0.7
		c0.8-0.2,1.64-0.4,2.54-0.6s1.77-0.38,2.64-0.55c0.86-0.17,1.49-0.32,1.89-0.45c0.86-0.13,1.33-0.2,1.39-0.2
		c0.07,0,0.1-0.5,0.1-1.49c0-1.2,0-2.23,0-3.09c0-0.86,0.02-1.74,0.05-2.64c0.03-0.9,0.08-1.83,0.15-2.79
		c0.07-0.96,0.16-2.14,0.3-3.54c0.07-0.53,0.07-0.86,0-1c-0.07-0.13-0.27-0.26-0.6-0.4c-0.4-0.27-0.93-0.63-1.59-1.1
		c-0.66-0.46-1.33-0.98-1.99-1.54c-0.66-0.56-1.24-1.18-1.74-1.84c-0.5-0.66-0.85-1.36-1.04-2.09c-0.2-0.66-0.56-1.5-1.09-2.49
		c-0.53-1-0.99-1.86-1.39-2.59c-0.27-0.4-0.23-0.76,0.1-1.1c0.53-0.53,1.23-0.8,2.09-0.8c0.4,0,0.98,0.15,1.74,0.45
		c0.76,0.3,1.59,0.65,2.49,1.05c0.89,0.4,1.79,0.83,2.69,1.29c0.89,0.47,1.64,0.9,2.24,1.3c0.6,0.4,1.33,0.9,2.19,1.49
		c0.86,0.6,1.67,1.26,2.44,1.99c0.76,0.73,1.43,1.5,1.99,2.29c0.56,0.8,0.85,1.59,0.85,2.39c0.13,2.79-0.08,5.71-0.65,8.77
		c-0.56,3.06-1.38,6.08-2.44,9.07c-0.07,0.2-0.08,0.4-0.05,0.6C109.33,42.85,109.38,43.18,109.45,43.64z M108.95,76.63
		c1.66,0.13,3.43,0.17,5.32,0.1c1.89-0.07,3.78-0.2,5.67-0.4c1.89-0.2,3.73-0.48,5.52-0.85c1.79-0.37,3.48-0.78,5.07-1.25
		c0.46-0.13,1.06-0.17,1.79-0.1c0.73,0.07,1.47,0.25,2.24,0.55c0.76,0.3,1.44,0.71,2.04,1.25c0.6,0.53,1.06,1.16,1.39,1.89
		c0.13,0.4,0.12,0.81-0.05,1.25c-0.17,0.43-0.42,0.85-0.75,1.25c-0.33,0.4-0.7,0.76-1.09,1.1c-0.4,0.33-0.73,0.56-0.99,0.7
		c-1.46,0.6-3.3,1.13-5.52,1.59c-2.22,0.46-4.61,0.85-7.16,1.15c-2.55,0.3-5.19,0.5-7.91,0.6c-2.72,0.1-5.31,0.12-7.76,0.05
		c-0.4,0-0.71-0.04-0.95-0.1c-0.23-0.07-0.51-0.17-0.85-0.3c-0.73-0.27-1.44-0.71-2.14-1.34c-0.7-0.63-1.33-1.33-1.89-2.09
		c-0.56-0.76-1.03-1.53-1.39-2.29c-0.37-0.76-0.51-1.41-0.45-1.94c0.07-1.2,0.2-2.26,0.4-3.19c0.2-0.93,0.36-1.83,0.5-2.69
		c0.13-0.86,0.21-1.68,0.25-2.44c0.03-0.76-0.05-1.58-0.25-2.44c-0.2-0.93-0.91-1.96-2.14-3.09c-1.23-1.13-2.47-2.46-3.73-3.99
		c-0.27-0.26-0.23-0.56,0.1-0.9c0.33-0.33,0.8-0.6,1.39-0.8c0.6-0.2,1.26-0.33,1.99-0.4c0.73-0.07,1.39,0,1.99,0.2
		c2.65,0.93,4.58,2.01,5.77,3.24c1.19,1.23,1.89,2.08,2.09,2.54c0.26,0.6,0.53,1.36,0.8,2.29c0.26,0.93,0.5,1.91,0.7,2.94
		c0.2,1.03,0.35,2.06,0.45,3.09s0.15,1.91,0.15,2.64c0,0.53-0.03,0.9-0.1,1.1C109.38,75.73,109.22,76.1,108.95,76.63z M126.96,12.66
		c-0.93-0.46-1.87-1.03-2.83-1.69c-0.96-0.66-1.86-1.4-2.69-2.19c-0.83-0.8-1.51-1.66-2.04-2.59c-0.53-0.93-0.8-1.93-0.8-2.99
		c0-0.33,0.08-0.81,0.25-1.45c0.16-0.63,0.35-1.11,0.55-1.44c2.92,0.53,5.65,1.21,8.21,2.04c2.55,0.83,4.96,2.08,7.21,3.74
		c0.93,0.67,1.52,1.4,1.79,2.19c0.26,0.8,0.4,1.99,0.4,3.59c0.07,3.39,0.07,7.08,0,11.06c-0.07,3.99-0.2,7.91-0.4,11.76
		c-0.2,3.85-0.45,7.51-0.75,10.96c-0.3,3.46-0.68,6.34-1.14,8.67c-0.2,1.06-0.76,2.43-1.69,4.08c-0.93,1.66-2.35,3.09-4.28,4.29
		c-0.27,0.27-0.6,0.33-0.99,0.2c-0.13,0-0.45-0.18-0.95-0.55c-0.5-0.36-0.75-0.71-0.75-1.05c0.4-1.79,0.66-3.2,0.8-4.23
		c0.13-1.03,0.26-2.34,0.4-3.94c0-0.13,0.02-0.7,0.05-1.69c0.03-1,0.06-2.26,0.1-3.79c0.03-1.53,0.08-3.3,0.15-5.33
		c0.07-2.03,0.13-4.17,0.2-6.43c-1.73-0.06-3.4-0.18-5.02-0.35c-1.63-0.17-3.17-0.55-4.63-1.15c-0.4-0.2-0.81-0.53-1.24-1
		c-0.43-0.46-0.8-0.98-1.09-1.54c-0.3-0.56-0.55-1.15-0.75-1.74c-0.2-0.6-0.27-1.13-0.2-1.59c0.53-0.2,1.04-0.4,1.54-0.6
		c0.5-0.2,1.01-0.36,1.54-0.5c1.13-0.13,2.35-0.26,3.68-0.4c1.33-0.13,2.62-0.2,3.88-0.2c0.4,0,0.81,0,1.24,0
		c0.43,0,0.85,0.03,1.24,0.1c0-2.39,0-4.7,0-6.93c0-2.22-0.07-4.23-0.2-6.03c0-0.2-0.03-0.4-0.1-0.6
		C127.52,13.02,127.29,12.79,126.96,12.66z"/>
	<path d="M173.21,29.59c2.85,0.13,5.35,0.1,7.51-0.1c2.15-0.2,4.19-0.56,6.12-1.1c0.66-0.13,1.41-0.3,2.24-0.5
		c0.83-0.2,1.51-0.23,2.04-0.1c0.73,0.13,1.23,0.62,1.49,1.45c0.26,0.83,0.46,1.71,0.6,2.64c0.06,0.47,0.05,0.83-0.05,1.1
		c-0.1,0.27-0.32,0.57-0.65,0.9c-0.53,0.4-0.93,0.81-1.19,1.25c-0.27,0.43-0.6,0.98-0.99,1.64c-0.8,1.33-1.61,2.66-2.44,3.99
		c-0.83,1.33-1.64,2.59-2.44,3.79c0.73,0.53,1.52,1.03,2.39,1.49c0.86,0.47,1.56,0.96,2.09,1.5c0.93,0.93,1.96,2.11,3.08,3.54
		c1.13,1.43,2.02,2.71,2.69,3.84c0.2,0.33,0.33,0.83,0.4,1.49c0.07,0.67,0.1,1.35,0.1,2.04s-0.07,1.35-0.2,1.94
		c-0.13,0.6-0.33,0.96-0.6,1.1c-0.53,0.27-1.34,0.23-2.44-0.1c-1.09-0.33-1.91-0.66-2.44-1c-0.46-0.26-0.96-0.71-1.49-1.35
		c-0.53-0.63-1.06-1.31-1.59-2.04c-0.53-0.73-1.04-1.45-1.54-2.14s-0.88-1.25-1.14-1.64c-0.53-0.73-0.96-1.39-1.29-1.99
		c-0.33-0.6-0.63-1.2-0.9-1.79c-0.93,1.39-1.94,2.94-3.03,4.63c-1.09,1.69-2.24,3.27-3.43,4.73c-0.6,0.73-1.33,1.4-2.19,1.99
		c-0.86,0.6-1.82,1.1-2.88,1.5c-1.06,0.4-2.17,0.65-3.33,0.75c-1.16,0.1-2.3,0.02-3.43-0.25c-0.2-0.07-0.41-0.2-0.65-0.4
		c-0.23-0.2-0.32-0.46-0.25-0.8c0.07-0.13,0.2-0.3,0.4-0.5s0.4-0.36,0.6-0.5c0.53-0.33,1.09-0.83,1.69-1.5
		c0.6-0.66,1.26-1.39,1.99-2.19c-0.53-0.53-1.03-1.11-1.49-1.74c-0.46-0.63-0.9-1.25-1.29-1.84c-0.4-0.53-0.85-1.25-1.34-2.14
		c-0.5-0.9-0.81-1.51-0.95-1.84c-1.06,1.39-1.97,2.67-2.74,3.84c-0.76,1.16-1.77,2.51-3.03,4.04c-0.8,1-1.84,1.73-3.13,2.19
		s-2.44,0.83-3.43,1.1c-0.27,0.07-0.65,0.13-1.14,0.2c-0.5,0.07-1.01,0.1-1.54,0.1c-0.53,0-1.04-0.02-1.54-0.05
		c-0.5-0.03-0.88-0.12-1.14-0.25c-0.2-0.07-0.42-0.31-0.65-0.75c-0.23-0.43-0.18-0.75,0.15-0.95c2.98-1.93,5.95-4.92,8.9-8.97
		c2.95-4.05,5.88-8.57,8.8-13.55c-0.2,0.13-0.51,0.27-0.95,0.4c-0.43,0.13-0.71,0.2-0.85,0.2c-0.53,0-1.14-0.02-1.84-0.05
		c-0.7-0.03-1.41-0.1-2.14-0.2c-0.73-0.1-1.41-0.21-2.04-0.35c-0.63-0.13-1.14-0.3-1.54-0.5c-0.13-0.07-0.4-0.26-0.8-0.6
		c-0.4-0.33-0.8-0.73-1.19-1.2c-0.4-0.46-0.78-0.91-1.14-1.35c-0.37-0.43-0.58-0.81-0.65-1.15c-0.07-0.13-0.1-0.38-0.1-0.75
		s0.03-0.61,0.1-0.75c0.07-0.33,0.48-0.51,1.24-0.55c0.76-0.03,1.54-0.02,2.34,0.05c3.05,0.2,5.7,0.2,7.96,0
		c2.25-0.2,4.41-0.56,6.47-1.1c0.66-0.13,1.41-0.3,2.24-0.5c0.83-0.2,1.51-0.23,2.04-0.1C172.35,27.87,172.88,28.47,173.21,29.59z
		 M170.82,36.77c-0.8,1.33-1.61,2.66-2.44,3.99c-0.83,1.33-1.64,2.59-2.44,3.79c0.73,0.53,1.52,1.03,2.39,1.49
		c0.86,0.47,1.56,0.96,2.09,1.5c1.06,1.06,1.89,2.03,2.49,2.89c1.52-2.13,3.03-4.38,4.53-6.78c1.49-2.39,2.93-4.82,4.33-7.27
		c-0.2,0.13-0.53,0.25-0.99,0.35c-0.46,0.1-0.76,0.15-0.9,0.15c-0.53,0-1.13-0.02-1.79-0.05c-0.66-0.03-1.34-0.1-2.04-0.2
		c-0.7-0.1-1.34-0.21-1.94-0.35c-0.6-0.13-1.09-0.3-1.49-0.5c-0.13,0-0.4-0.2-0.8-0.6L170.82,36.77z M199.07,30.09
		c-0.07-0.73-0.15-1.39-0.25-1.99c-0.1-0.6-0.35-1.1-0.75-1.5c-0.73-0.8-1.51-1.58-2.34-2.34c-0.83-0.76-1.61-1.58-2.34-2.44
		c-0.73-0.86-1.38-1.76-1.94-2.69c-0.56-0.93-0.88-1.89-0.94-2.89c-0.07-0.53-0.02-0.98,0.15-1.35c0.16-0.36,0.31-0.61,0.45-0.75
		c2.59,0.73,5.19,1.68,7.81,2.84c2.62,1.16,4.69,2.61,6.22,4.33c1.33,1.53,2.05,3.01,2.19,4.43c0.13,1.43,0.2,3.07,0.2,4.93v10.96
		c1.59-0.2,3.18-0.3,4.77-0.3c0.6,0,1.19,0.02,1.79,0.05c0.6,0.03,1.19,0.05,1.79,0.05V30.59c0-1.73-0.02-3.49-0.05-5.28
		c-0.03-1.79-0.12-3.62-0.25-5.48c-0.07-0.66-0.17-1.23-0.3-1.69c-0.13-0.46-0.56-1.06-1.29-1.79c-0.8-0.66-1.81-1.58-3.03-2.74
		c-1.23-1.16-2.42-2.39-3.58-3.69c-1.16-1.3-2.17-2.64-3.03-4.04c-0.86-1.4-1.36-2.69-1.49-3.89c-0.07-0.46,0-0.88,0.2-1.25
		c0.2-0.36,0.6-0.51,1.19-0.45c1.19,0.13,2.7,0.58,4.53,1.34c1.82,0.76,3.68,1.68,5.57,2.74c1.89,1.06,3.68,2.16,5.37,3.29
		c1.69,1.13,2.93,2.13,3.73,2.99c0.6,0.6,1.03,1.21,1.29,1.84c0.26,0.63,0.36,1.58,0.3,2.84c-0.13,2.13-0.2,4.13-0.2,6.03
		s0,3.54,0,4.93v33.58c0,1.26-0.03,2.86-0.1,4.78c-0.07,1.93-0.2,3.95-0.4,6.08c-0.2,2.13-0.45,4.25-0.75,6.38
		c-0.3,2.13-0.7,4.05-1.19,5.78c-0.5,1.73-1.08,3.12-1.74,4.18c-0.66,1.06-1.46,1.59-2.39,1.59c-0.53,0-0.95-0.81-1.24-2.44
		c-0.3-1.63-0.53-3.59-0.7-5.88c-0.17-2.29-0.28-4.63-0.35-7.03c-0.07-2.39-0.1-4.38-0.1-5.98V50.42c-1.46,0-2.88-0.03-4.28-0.1
		c-1.39-0.07-2.75-0.26-4.08-0.6v6.88c0,2.79-0.2,5.48-0.6,8.07s-0.88,4.9-1.44,6.92c-0.56,2.03-1.19,3.65-1.89,4.88
		c-0.7,1.23-1.38,1.81-2.04,1.74c-0.6-0.07-1.06-0.8-1.39-2.19c-0.33-1.4-0.58-3.01-0.75-4.83c-0.17-1.83-0.27-3.69-0.3-5.58
		c-0.03-1.89-0.05-3.37-0.05-4.43V30.09z"/>
	<path d="M296.65,74.04c-5.04-1.39-9.93-2.38-14.67-2.94c-4.74-0.56-9.9-0.91-15.47-1.05c-1.59-0.07-3.48-0.08-5.67-0.05
		c-2.19,0.03-4.54,0.13-7.06,0.3c-2.52,0.17-5.12,0.4-7.81,0.7c-2.69,0.3-5.32,0.71-7.91,1.25c-0.6,0.13-1.23,0.02-1.89-0.35
		c-0.66-0.37-1.06-0.65-1.19-0.85c-0.13-0.33-0.07-0.93,0.2-1.79c0.26-0.86,0.56-1.43,0.9-1.69c0.4-0.33,1.06-0.71,1.99-1.15
		c0.93-0.43,1.92-0.83,2.98-1.2c1.06-0.36,2.1-0.68,3.13-0.95c1.03-0.26,1.84-0.43,2.44-0.5c3.91-0.46,8.22-0.85,12.93-1.15
		c4.71-0.3,9.42-0.43,14.12-0.4c4.71,0.03,9.2,0.25,13.48,0.65s7.97,1.06,11.09,1.99c0.33,0.13,0.76,0.38,1.29,0.75
		c0.53,0.37,1.04,0.81,1.54,1.34c0.5,0.53,0.96,1.1,1.39,1.69c0.43,0.6,0.71,1.16,0.85,1.69c0.07,0.33-0.08,0.78-0.45,1.34
		c-0.37,0.56-0.81,1.01-1.34,1.35c-0.33,0.2-1.01,0.41-2.04,0.65C298.46,73.92,297.51,74.04,296.65,74.04z M284.62,16.74
		c0.4,0.2,0.86,0.52,1.39,0.95c0.53,0.43,1.04,0.91,1.54,1.44c0.5,0.53,0.91,1.05,1.24,1.54c0.33,0.5,0.53,0.91,0.6,1.25
		c0.26,1.13,0.36,2.21,0.3,3.24c-0.07,1.03-0.13,2.08-0.2,3.14c-0.07,1.33-0.17,2.96-0.3,4.88c-0.13,1.93-0.3,3.89-0.5,5.88
		c-0.2,1.99-0.43,3.9-0.7,5.73c-0.27,1.83-0.53,3.31-0.8,4.43c-0.2,0.93-0.51,1.98-0.95,3.14c-0.43,1.16-0.91,2.23-1.44,3.19
		c-0.53,0.96-1.09,1.71-1.69,2.24c-0.6,0.53-1.19,0.6-1.79,0.2c-0.4-0.33-0.66-0.93-0.8-1.79c-0.13-0.86-0.2-1.86-0.2-2.99
		c0-1.46-0.02-3.52-0.05-6.18c-0.03-2.66-0.08-5.41-0.15-8.27c-0.07-2.86-0.17-5.6-0.3-8.22c-0.13-2.62-0.33-4.7-0.6-6.23
		c-1.59,0.4-3.52,0.78-5.77,1.15c-2.25,0.37-4.56,0.67-6.91,0.9c-2.35,0.23-4.61,0.45-6.76,0.65c-2.16,0.2-3.9,0.33-5.22,0.4
		c-0.27,0-0.73-0.12-1.39-0.35c-0.66-0.23-1.34-0.53-2.04-0.9c-0.7-0.36-1.34-0.76-1.94-1.2c-0.6-0.43-0.99-0.85-1.19-1.25
		c-0.27-0.46-0.27-0.9,0-1.3c0.26-0.46,1.16-0.93,2.69-1.39c1.52-0.46,3.4-0.91,5.62-1.35c2.22-0.43,4.63-0.83,7.21-1.2
		c2.59-0.36,5.04-0.7,7.36-1c2.32-0.3,4.38-0.55,6.17-0.75c1.79-0.2,2.98-0.33,3.58-0.4c0.86-0.07,1.54-0.1,2.04-0.1
		C283.17,16.24,283.82,16.41,284.62,16.74z"/>
	<path d="M332.66,27.2c1.33-0.13,2.25,0.03,2.79,0.5c0.2,0.13,0.38,0.42,0.55,0.85c0.16,0.43,0.31,0.91,0.45,1.44
		c0.13,0.53,0.25,1.05,0.35,1.54s0.15,0.88,0.15,1.15c0.07,0.33-0.07,0.58-0.4,0.75c-0.33,0.17-0.83,0.32-1.49,0.45
		c-0.73,0.2-1.79,0.33-3.18,0.4c-1.39,0.07-2.9,0.1-4.53,0.1c-1.63,0-3.28-0.03-4.97-0.1c-1.69-0.07-3.23-0.17-4.63-0.3
		c0.4,0.33,0.68,0.9,0.85,1.69c0.16,0.8,0.3,1.64,0.4,2.54c0.1,0.9,0.16,1.69,0.2,2.39c0.03,0.7,0.05,1.08,0.05,1.15
		c4.51-0.13,8.79-0.3,12.83-0.5c4.04-0.2,7.82-0.43,11.34-0.7c0.4,0,0.95,0.17,1.64,0.5c0.7,0.33,1.36,0.75,1.99,1.25
		c0.63,0.5,1.16,1.01,1.59,1.54c0.43,0.53,0.61,1,0.55,1.39c-0.07,0.27-0.27,0.52-0.6,0.75c-0.33,0.23-0.75,0.43-1.24,0.6
		c-0.5,0.17-1.01,0.3-1.54,0.4c-0.53,0.1-0.99,0.18-1.39,0.25c-2.06,0.33-4.36,0.65-6.91,0.95c-2.55,0.3-5.21,0.58-7.96,0.85
		c-2.75,0.27-5.5,0.46-8.26,0.6c-2.75,0.13-5.36,0.17-7.81,0.1c-2.26,0-3.45-0.83-3.58-2.49c-0.07-0.33-0.12-0.7-0.15-1.1
		c-0.03-0.4-0.02-0.76,0.05-1.1c0.07-0.33,0.13-0.56,0.2-0.7c0.07-0.13,0.23-0.33,0.5-0.6c0.46-0.53,0.83-1.35,1.09-2.44
		c0.26-1.1,0.45-2.24,0.55-3.44c0.1-1.2,0.12-2.32,0.05-3.39c-0.07-1.06-0.23-1.83-0.5-2.29c-0.46-0.13-1.09-0.55-1.89-1.25
		c-0.8-0.7-1.13-1.38-0.99-2.04c0.07-0.26,0.38-0.45,0.95-0.55c0.56-0.1,1.24-0.15,2.04-0.15c1.99-0.13,4.28-0.25,6.86-0.35
		s5.14-0.21,7.66-0.35c0.4-0.46,0.73-1.03,0.99-1.69c0.26-0.66,0.5-1.33,0.7-1.99c0.2-0.66,0.33-1.28,0.4-1.84
		c0.07-0.56,0.07-1.01,0-1.34c-1.26,0-2.67,0.08-4.23,0.25c-1.56,0.17-3.17,0.35-4.82,0.55c-1.13,0.13-1.97,0.2-2.54,0.2
		c-0.56,0-1.21-0.23-1.94-0.7c-0.4-0.2-0.83-0.53-1.29-1c-0.46-0.46-0.9-0.95-1.29-1.44c-0.4-0.5-0.73-0.95-0.99-1.35
		c-0.27-0.4-0.4-0.7-0.4-0.9c0-0.46,0.03-0.76,0.1-0.9c0.07-0.2,0.33-0.3,0.8-0.3c3.31-0.13,6.68-0.31,10.1-0.55
		c3.41-0.23,6.58-0.55,9.5-0.95c0.6-0.07,1.26,0.05,1.99,0.35c0.73,0.3,1.43,0.7,2.09,1.2c0.66,0.5,1.21,1.03,1.64,1.59
		c0.43,0.57,0.65,1.05,0.65,1.45c0,0.2-0.1,0.58-0.3,1.15c-0.2,0.57-0.41,1.16-0.65,1.79c-0.23,0.63-0.48,1.21-0.75,1.74
		c-0.27,0.53-0.5,0.9-0.7,1.1c-0.4,0.33-0.93,0.68-1.59,1.05c-0.66,0.37-1.39,0.71-2.19,1.05c-0.8,0.33-1.59,0.63-2.39,0.9
		c-0.8,0.27-1.49,0.47-2.09,0.6L332.66,27.2z M322.91,62.98c0.99-0.2,2.22-0.2,3.68,0c1.46,0.2,2.93,0.58,4.43,1.15
		c1.49,0.57,2.85,1.25,4.08,2.04c1.23,0.8,2.07,1.66,2.54,2.59c0.6,1.26,0.9,2.71,0.9,4.33c0,1.63-0.18,3.15-0.55,4.58
		c-0.37,1.43-0.85,2.66-1.44,3.69c-0.6,1.03-1.19,1.54-1.79,1.54c-0.66,0-1.44-0.43-2.34-1.3c-0.89-0.86-1.44-1.73-1.64-2.59
		c-0.13-0.6-0.27-1.28-0.4-2.04c-0.13-0.76-0.32-1.54-0.55-2.34c-0.23-0.8-0.51-1.54-0.85-2.24c-0.33-0.7-0.73-1.28-1.19-1.74
		c-1.33-1.2-2.32-2.39-2.98-3.59C324.14,65.87,323.51,64.51,322.91,62.98z M349.77,65.07c-1.39,0.2-2.62,0.37-3.68,0.5
		c-1.06,0.13-2.19,0.2-3.38,0.2c-2.72,0-4.96-0.38-6.71-1.15c-1.76-0.76-3.4-2.04-4.92-3.84c3.58-0.73,7.19-1.51,10.84-2.34
		c3.65-0.83,7.19-1.51,10.64-2.04c0.66-0.07,1.46,0.13,2.39,0.6c1.39,0.6,2.79,1.29,4.18,2.09c0.4,0.27,0.85,0.57,1.34,0.9
		c0.5,0.33,0.78,0.7,0.85,1.1c0.07,0.47-0.17,0.96-0.7,1.5c-0.66,0.53-1.24,1.33-1.74,2.39c-0.5,1.06-0.81,2.33-0.95,3.79
		c-0.07,1.26-0.13,2.64-0.2,4.14c-0.07,1.49-0.1,3.14-0.1,4.93c0,0.86,0,1.56,0,2.09c0,0.53-0.13,1.03-0.4,1.5
		c-0.13,0.2-0.38,0.51-0.75,0.95c-0.37,0.43-0.78,0.86-1.24,1.3c-0.46,0.43-0.96,0.81-1.49,1.15c-0.53,0.33-1.03,0.5-1.49,0.5
		c-1.73,0-3.6-0.13-5.62-0.4c-2.02-0.27-3.9-0.66-5.62-1.2c-0.2-0.07-0.48-0.25-0.85-0.55c-0.37-0.3-0.7-0.63-0.99-1
		c-0.3-0.37-0.51-0.71-0.65-1.05c-0.13-0.33-0.1-0.6,0.1-0.8c0.2-0.13,0.6-0.23,1.19-0.3c0.6-0.07,1.39-0.2,2.39-0.4
		c0.73-0.13,1.38-0.25,1.94-0.35c0.56-0.1,1.11-0.2,1.64-0.3c0.53-0.1,1.11-0.2,1.74-0.3c0.63-0.1,1.38-0.25,2.24-0.45V65.07z
		 M346.49,0c1.33,0.07,2.67,0.4,4.03,1c1.36,0.6,2.64,1.36,3.83,2.29c1.19,0.93,2.25,1.96,3.18,3.09c0.93,1.13,1.62,2.26,2.09,3.39
		c0.73,1.79,1.14,3.7,1.24,5.73c0.1,2.03,0.15,4,0.15,5.93c0,1.59-0.03,3.44-0.1,5.53c-0.07,2.09-0.15,4.2-0.25,6.33
		c-0.1,2.13-0.22,4.17-0.35,6.13c-0.13,1.96-0.3,3.64-0.5,5.03c-0.07,0.53-0.18,1.26-0.35,2.19c-0.17,0.93-0.41,1.89-0.75,2.89
		c-0.33,1-0.75,1.96-1.24,2.89c-0.5,0.93-1.11,1.66-1.84,2.19c-0.53,0.33-0.93,0.3-1.19-0.1c-0.4-0.66-0.75-1.58-1.04-2.74
		c-0.3-1.16-0.56-2.36-0.8-3.59c-0.23-1.23-0.41-2.39-0.55-3.49c-0.13-1.1-0.2-1.98-0.2-2.64c-0.07-2.52-0.13-4.95-0.2-7.27
		c-0.07-2.32-0.12-4.63-0.15-6.93c-0.03-2.29-0.05-4.62-0.05-6.97c0-2.36,0-4.8,0-7.32c0-0.86-0.2-1.5-0.6-1.89
		c-1.33-1.46-2.59-3.09-3.78-4.88c-1.19-1.79-1.89-3.45-2.09-4.98C344.8,0.6,345.29,0,346.49,0z"/>
</g>
</svg>
